<svg xmlns="http://www.w3.org/2000/svg" viewBox="0 0 512 512" width="512" height="512">
  <rect width="512" height="512" fill="#0f172a"/>
  <rect x="156" y="160" width="200" height="220" rx="4" fill="#1e3a5f"/>
  <rect x="176" y="185" width="35" height="30" rx="3" fill="#38bdf8" opacity="0.9"/>
  <rect x="226" y="185" width="35" height="30" rx="3" fill="#38bdf8" opacity="0.9"/>
  <rect x="276" y="185" width="35" height="30" rx="3" fill="#0891b2" opacity="0.7"/>
  <rect x="176" y="230" width="35" height="30" rx="3" fill="#0891b2" opacity="0.7"/>
  <rect x="226" y="230" width="35" height="30" rx="3" fill="#38bdf8" opacity="0.9"/>
  <rect x="276" y="230" width="35" height="30" rx="3" fill="#38bdf8" opacity="0.9"/>
  <rect x="176" y="275" width="35" height="30" rx="3" fill="#38bdf8" opacity="0.9"/>
  <rect x="276" y="275" width="35" height="30" rx="3" fill="#0891b2" opacity="0.7"/>
  <rect x="226" y="310" width="60" height="70" rx="3" fill="#0284c7"/>
  <polygon points="136,165 256,95 376,165" fill="#0ea5e9" opacity="0.8"/>
  <rect x="220" y="138" width="72" height="6" rx="3" fill="#7dd3fc"/>
</svg>
